{
    "asset" : {
        "generator" : "Khronos glTF Blender I/O v1.1.45",
        "version" : "2.0"
    },
    "scene" : 0,
    "scenes" : [
        {
            "name" : "Scene",
            "nodes" : [
                0
            ]
        }
    ],
    "nodes" : [
        {
            "mesh" : 0,
            "name" : "baseMesh",
            "rotation" : [
                0.7071068286895752,
                0,
                0,
                0.7071067094802856
            ],
            "scale" : [
                6.207015394465998e-05,
                6.207015394465998e-05,
                6.207015394465998e-05
            ],
            "translation" : [
                0,
                -0.06662221252918243,
                0
            ]
        }
    ],
    "materials" : [
        {
            "doubleSided" : true,
            "emissiveFactor" : [
                0,
                0,
                0
            ],
            "name" : "Default_Material.001",
            "pbrMetallicRoughness" : {
                "baseColorFactor" : [
                    0.5,
                    0.5,
                    0.5,
                    1
                ],
                "metallicFactor" : 0,
                "roughnessFactor" : 0.5527864098548889
            }
        }
    ],
    "meshes" : [
        {
            "name" : "Mesh.006",
            "primitives" : [
                {
                    "attributes" : {
                        "POSITION" : 0,
                        "NORMAL" : 1,
                        "TEXCOORD_0" : 2
                    },
                    "indices" : 3,
                    "material" : 0
                }
            ]
        }
    ],
    "accessors" : [
        {
            "bufferView" : 0,
            "componentType" : 5126,
            "count" : 1919,
            "max" : [
                234.884033203125,
                144.93226623535156,
                -680.2973022460938
            ],
            "min" : [
                -245.48101806640625,
                -131.37953186035156,
                -1596.7525634765625
            ],
            "type" : "VEC3"
        },
        {
            "bufferView" : 1,
            "componentType" : 5126,
            "count" : 1919,
            "type" : "VEC3"
        },
        {
            "bufferView" : 2,
            "componentType" : 5126,
            "count" : 1919,
            "type" : "VEC2"
        },
        {
            "bufferView" : 3,
            "componentType" : 5123,
            "count" : 10224,
            "type" : "SCALAR"
        }
    ],
    "bufferViews" : [
        {
            "buffer" : 0,
            "byteLength" : 23028,
            "byteOffset" : 0
        },
        {
            "buffer" : 0,
            "byteLength" : 23028,
            "byteOffset" : 23028
        },
        {
            "buffer" : 0,
            "byteLength" : 15352,
            "byteOffset" : 46056
        },
        {
            "buffer" : 0,
            "byteLength" : 20448,
            "byteOffset" : 61408
        }
    ],
    "buffers" : [
        {
            "byteLength" : 81856,
            "uri" : "data:application/octet-stream;base64,"
        }
    ]
}
