{
    "asset" : {
        "generator" : "Khronos glTF Blender I/O v1.1.45",
        "version" : "2.0"
    },
    "scene" : 0,
    "scenes" : [
        {
            "name" : "Scene",
            "nodes" : [
                0,
                1,
                2,
                3,
                4
            ]
        }
    ],
    "nodes" : [
        {
            "mesh" : 0,
            "name" : "pCylinder2",
            "rotation" : [
                0.677020788192749,
                0.2154712826013565,
                -0.18577973544597626,
                0.6787495017051697
            ],
            "scale" : [
                0.09203888475894928,
                0.09203888475894928,
                0.13052396476268768
            ],
            "translation" : [
                0.13040059804916382,
                0.28943750262260437,
                -1.1956229209899902
            ]
        },
        {
            "mesh" : 1,
            "name" : "pCylinder3",
            "rotation" : [
                0.7058966755867004,
                0.04786780849099159,
                -0.04792402684688568,
                0.7050687074661255
            ],
            "scale" : [
                0.09970685839653015,
                0.09970685094594955,
                0.11901917308568954
            ],
            "translation" : [
                0.1332477331161499,
                0.29275602102279663,
                -1.1944897174835205
            ]
        },
        {
            "mesh" : 2,
            "name" : "ig\u0142a",
            "rotation" : [
                -0.9781613349914551,
                -0.2063821405172348,
                0.017616920173168182,
                0.01721660979092121
            ],
            "scale" : [
                0.021668588742613792,
                0.005169761832803488,
                0.22043514251708984
            ],
            "translation" : [
                0.12434228509664536,
                1.0886240005493164,
                -0.8345616459846497
            ]
        },
        {
            "mesh" : 3,
            "name" : "pokretlo",
            "rotation" : [
                -0.6331185698509216,
                -0.32644397020339966,
                -0.3188732862472534,
                0.6252319812774658
            ],
            "scale" : [
                0.12595316767692566,
                0.12595316767692566,
                0.04266541078686714
            ],
            "translation" : [
                0.12952978909015656,
                -0.38238897919654846,
                -0.8849820494651794
            ]
        },
        {
            "mesh" : 4,
            "name" : "maszyna",
            "scale" : [
                0.5767244100570679,
                0.5375127196311951,
                1
            ],
            "translation" : [
                0.13111722469329834,
                0,
                -0.6616324186325073
            ]
        }
    ],
    "materials" : [
        {
            "doubleSided" : true,
            "emissiveFactor" : [
                0,
                0,
                0
            ],
            "name" : "lambert1",
            "pbrMetallicRoughness" : {
                "baseColorFactor" : [
                    0.5,
                    0.5,
                    0.5,
                    1
                ],
                "metallicFactor" : 0,
                "roughnessFactor" : 0.5527864098548889
            }
        }
    ],
    "meshes" : [
        {
            "name" : "Mesh.001",
            "primitives" : [
                {
                    "attributes" : {
                        "POSITION" : 0,
                        "NORMAL" : 1,
                        "TEXCOORD_0" : 2
                    },
                    "indices" : 3,
                    "material" : 0
                }
            ]
        },
        {
            "name" : "Mesh.002",
            "primitives" : [
                {
                    "attributes" : {
                        "POSITION" : 4,
                        "NORMAL" : 5,
                        "TEXCOORD_0" : 6
                    },
                    "indices" : 7,
                    "material" : 0
                }
            ]
        },
        {
            "name" : "Mesh.003",
            "primitives" : [
                {
                    "attributes" : {
                        "POSITION" : 8,
                        "NORMAL" : 9,
                        "TEXCOORD_0" : 10
                    },
                    "indices" : 11,
                    "material" : 0
                }
            ]
        },
        {
            "name" : "Mesh.004",
            "primitives" : [
                {
                    "attributes" : {
                        "POSITION" : 12,
                        "NORMAL" : 13,
                        "TEXCOORD_0" : 14,
                        "COLOR_0" : 15,
                        "COLOR_1" : 16
                    },
                    "indices" : 17,
                    "material" : 0
                }
            ]
        },
        {
            "name" : "Mesh.005",
            "primitives" : [
                {
                    "attributes" : {
                        "POSITION" : 18,
                        "NORMAL" : 19,
                        "TEXCOORD_0" : 20
                    },
                    "indices" : 21,
                    "material" : 0
                }
            ]
        }
    ],
    "accessors" : [
        {
            "bufferView" : 0,
            "componentType" : 5126,
            "count" : 145,
            "max" : [
                1.2775933742523193,
                1.2597475051879883,
                1.000000238418579
            ],
            "min" : [
                -1.37158203125,
                -1.2754182815551758,
                -1.163762092590332
            ],
            "type" : "VEC3"
        },
        {
            "bufferView" : 1,
            "componentType" : 5126,
            "count" : 145,
            "type" : "VEC3"
        },
        {
            "bufferView" : 2,
            "componentType" : 5126,
            "count" : 145,
            "type" : "VEC2"
        },
        {
            "bufferView" : 3,
            "componentType" : 5123,
            "count" : 480,
            "type" : "SCALAR"
        },
        {
            "bufferView" : 4,
            "componentType" : 5126,
            "count" : 84,
            "max" : [
                1,
                1.0000001192092896,
                1
            ],
            "min" : [
                -1.000000238418579,
                -1.0000004768371582,
                -1
            ],
            "type" : "VEC3"
        },
        {
            "bufferView" : 5,
            "componentType" : 5126,
            "count" : 84,
            "type" : "VEC3"
        },
        {
            "bufferView" : 6,
            "componentType" : 5126,
            "count" : 84,
            "type" : "VEC2"
        },
        {
            "bufferView" : 7,
            "componentType" : 5123,
            "count" : 240,
            "type" : "SCALAR"
        },
        {
            "bufferView" : 8,
            "componentType" : 5126,
            "count" : 42,
            "max" : [
                1,
                1.0000001192092896,
                1
            ],
            "min" : [
                -1.000000238418579,
                -1.0000004768371582,
                -1
            ],
            "type" : "VEC3"
        },
        {
            "bufferView" : 9,
            "componentType" : 5126,
            "count" : 42,
            "type" : "VEC3"
        },
        {
            "bufferView" : 10,
            "componentType" : 5126,
            "count" : 42,
            "type" : "VEC2"
        },
        {
            "bufferView" : 11,
            "componentType" : 5123,
            "count" : 114,
            "type" : "SCALAR"
        },
        {
            "bufferView" : 12,
            "componentType" : 5126,
            "count" : 600,
            "max" : [
                0.9900212287902832,
                0.9900221824645996,
                1.0000014305114746
            ],
            "min" : [
                -0.9900221824645996,
                -0.990023136138916,
                -1.0000019073486328
            ],
            "type" : "VEC3"
        },
        {
            "bufferView" : 13,
            "componentType" : 5126,
            "count" : 600,
            "type" : "VEC3"
        },
        {
            "bufferView" : 14,
            "componentType" : 5126,
            "count" : 600,
            "type" : "VEC2"
        },
        {
            "bufferView" : 15,
            "componentType" : 5126,
            "count" : 600,
            "type" : "VEC4"
        },
        {
            "bufferView" : 16,
            "componentType" : 5126,
            "count" : 600,
            "type" : "VEC4"
        },
        {
            "bufferView" : 17,
            "componentType" : 5123,
            "count" : 1188,
            "type" : "SCALAR"
        },
        {
            "bufferView" : 18,
            "componentType" : 5126,
            "count" : 497,
            "max" : [
                0.5,
                2.481266736984253,
                0.4999994933605194
            ],
            "min" : [
                -0.5,
                -0.6324405670166016,
                -0.49958646297454834
            ],
            "type" : "VEC3"
        },
        {
            "bufferView" : 19,
            "componentType" : 5126,
            "count" : 497,
            "type" : "VEC3"
        },
        {
            "bufferView" : 20,
            "componentType" : 5126,
            "count" : 497,
            "type" : "VEC2"
        },
        {
            "bufferView" : 21,
            "componentType" : 5123,
            "count" : 1014,
            "type" : "SCALAR"
        }
    ],
    "bufferViews" : [
        {
            "buffer" : 0,
            "byteLength" : 1740,
            "byteOffset" : 0
        },
        {
            "buffer" : 0,
            "byteLength" : 1740,
            "byteOffset" : 1740
        },
        {
            "buffer" : 0,
            "byteLength" : 1160,
            "byteOffset" : 3480
        },
        {
            "buffer" : 0,
            "byteLength" : 960,
            "byteOffset" : 4640
        },
        {
            "buffer" : 0,
            "byteLength" : 1008,
            "byteOffset" : 5600
        },
        {
            "buffer" : 0,
            "byteLength" : 1008,
            "byteOffset" : 6608
        },
        {
            "buffer" : 0,
            "byteLength" : 672,
            "byteOffset" : 7616
        },
        {
            "buffer" : 0,
            "byteLength" : 480,
            "byteOffset" : 8288
        },
        {
            "buffer" : 0,
            "byteLength" : 504,
            "byteOffset" : 8768
        },
        {
            "buffer" : 0,
            "byteLength" : 504,
            "byteOffset" : 9272
        },
        {
            "buffer" : 0,
            "byteLength" : 336,
            "byteOffset" : 9776
        },
        {
            "buffer" : 0,
            "byteLength" : 228,
            "byteOffset" : 10112
        },
        {
            "buffer" : 0,
            "byteLength" : 7200,
            "byteOffset" : 10340
        },
        {
            "buffer" : 0,
            "byteLength" : 7200,
            "byteOffset" : 17540
        },
        {
            "buffer" : 0,
            "byteLength" : 4800,
            "byteOffset" : 24740
        },
        {
            "buffer" : 0,
            "byteLength" : 9600,
            "byteOffset" : 29540
        },
        {
            "buffer" : 0,
            "byteLength" : 9600,
            "byteOffset" : 39140
        },
        {
            "buffer" : 0,
            "byteLength" : 2376,
            "byteOffset" : 48740
        },
        {
            "buffer" : 0,
            "byteLength" : 5964,
            "byteOffset" : 51116
        },
        {
            "buffer" : 0,
            "byteLength" : 5964,
            "byteOffset" : 57080
        },
        {
            "buffer" : 0,
            "byteLength" : 3976,
            "byteOffset" : 63044
        },
        {
            "buffer" : 0,
            "byteLength" : 2028,
            "byteOffset" : 67020
        }
    ],
    "buffers" : [
        {
            "byteLength" : 69048,
            "uri" : "data:application/octet-stream;base64,"
        }
    ]
}
